<svg id="Слой_1" data-name="Слой 1" xmlns="http://www.w3.org/2000/svg" width="186.11" height="28.04" viewBox="0 0 186.11 28.04">
  <defs>
    <style>
      .cls-1 {
        fill: #fff;
      }
    </style>
  </defs>
  <title>4</title>
  <g>
    <path class="cls-1" d="M28.43,28.59V35l-0.94.58a0.07,0.07,0,0,0-.07,0,0.29,0.29,0,0,1-.14.06,0.2,0.2,0,0,1-.11.06,0.2,0.2,0,0,1-.14.06,0.52,0.52,0,0,1-.14.1s-0.07,0-.11.06-0.07,0-.11.06l-0.18.06s-0.07,0-.11.06a0.29,0.29,0,0,1-.18.06l-0.07.06H26.06a0.77,0.77,0,0,1-.18.1l-0.25.1,0,0a14.92,14.92,0,0,1-4.79,1H20.12a14.21,14.21,0,0,1-4.21-.61h0c-0.14,0-.25-0.1-0.4-0.13l-0.54-.19a7.7,7.7,0,0,1-1.3-.58,11.79,11.79,0,0,1-3-2,11.81,11.81,0,0,1-2.88-3.78,10.44,10.44,0,0,1-1-3.42c0-.38-0.07-0.8-0.07-1.18V25.07a11.39,11.39,0,0,1,1-4,12.17,12.17,0,0,1,2.88-3.78,12.8,12.8,0,0,1,4.25-2.53,14.1,14.1,0,0,1,5.18-.93H20.8a1.12,1.12,0,0,1,.32,0,14.48,14.48,0,0,1,4.5,1,0,0,0,0,0,0,0L25.88,15h0v4.38a8.72,8.72,0,0,0-1.8-1,11.11,11.11,0,0,0-1.66-.54,0.14,0.14,0,0,1-.11,0H22.24a0.19,0.19,0,0,0-.14,0,0.12,0.12,0,0,1-.07,0c-0.14,0-.32,0-0.47-0.06H21.49l-0.14,0H21.27a0.24,0.24,0,0,1-.14,0H20.8s-0.07,0-.11,0H20.12a9.79,9.79,0,0,0-4.72,1.15,0.81,0.81,0,0,1-.18.1,7.7,7.7,0,0,0-1.58,1.15,5.59,5.59,0,0,0-.47.42,0,0,0,0,1,0,0,6.63,6.63,0,0,0-.47.58L12.6,21l-0.22.29a0.24,0.24,0,0,0-.07.13,7.19,7.19,0,0,0-1.12,2.43,0.06,0.06,0,0,0,0,.06,8.94,8.94,0,0,0-.18,1v0.35a1.9,1.9,0,0,0,0,.45,1.77,1.77,0,0,0,0,.42,7.53,7.53,0,0,0,.32,1.79,8,8,0,0,0,2.34,3.55,9.73,9.73,0,0,0,6.48,2.4h0.25a0.14,0.14,0,0,0,.11,0H21s0,0,.07,0h0.22l0.79-.13a0.08,0.08,0,0,0,.07,0,0.24,0.24,0,0,0,.14,0h0.11a0.14,0.14,0,0,1,.11,0,0.24,0.24,0,0,1,.14,0,0.13,0.13,0,0,0,.07,0A8,8,0,0,0,24.22,33h0V28.59h-5V25.23h9.21v3.36Z" transform="translate(-6.76 -13.51)"/>
    <path class="cls-1" d="M38.18,23.47h9.75v3.36H38.18v7.36H50v3.36H34V13.81H50v3.33H38.18v6.34Z" transform="translate(-6.76 -13.51)"/>
    <path class="cls-1" d="M73.31,17.14H66V37.55H61.76V17.14H54.42V13.81h18.9v3.33Z" transform="translate(-6.76 -13.51)"/>
    <path class="cls-1" d="M92,32.78a7.51,7.51,0,0,1-6,4.64,9.25,9.25,0,0,1-1.62.13A9.64,9.64,0,0,1,81.16,37a10.51,10.51,0,0,1-4.43-3L80,31.69a5.9,5.9,0,0,0,2.63,1.86,4.58,4.58,0,0,0,2.45.19,3.47,3.47,0,0,0,2.81-2c0.36-1.09-.47-2-1.22-2.69-1.19-1-3.13-2.69-3.28-2.82L80.15,23.5a6.74,6.74,0,0,1-2.05-2.85,4.55,4.55,0,0,1-.07-3A5.41,5.41,0,0,1,80,15a7.36,7.36,0,0,1,3.2-1.34,8,8,0,0,1,4,.26,9,9,0,0,1,3.64,2.4l-3.28,2.34A3.79,3.79,0,0,0,84,17.3a2.41,2.41,0,0,0-1.94,1.38c-0.14.45-.11,1.18,1,2.14l4.46,3.81c0.65,0.58,1.44,1.25,2,1.73a7.12,7.12,0,0,1,2.34,3.1A5,5,0,0,1,92,32.78Z" transform="translate(-6.76 -13.51)"/>
    <path class="cls-1" d="M116.9,35.6a16.23,16.23,0,0,1-2.16,1,15.15,15.15,0,0,1-5.22.93,14.8,14.8,0,0,1-5.18-.93,13.44,13.44,0,0,1-4.25-2.56,11.82,11.82,0,0,1-2.88-3.78,10.73,10.73,0,0,1-1-4.61,11,11,0,0,1,1-4.64,12.18,12.18,0,0,1,2.88-3.78,12.8,12.8,0,0,1,4.25-2.53,14.1,14.1,0,0,1,5.18-.93,14.43,14.43,0,0,1,5.22.93L115.31,15v4.38a9.77,9.77,0,0,0-5.8-1.82,9.57,9.57,0,0,0-6.48,2.4,7.49,7.49,0,0,0,0,11.52,9.95,9.95,0,0,0,13,0,11,11,0,0,0,.9-0.9V35.6Z" transform="translate(-6.76 -13.51)"/>
    <path class="cls-1" d="M129.27,36.62A13.44,13.44,0,0,1,125,34.06a11.82,11.82,0,0,1-2.88-3.78,10.73,10.73,0,0,1-1-4.61,11,11,0,0,1,1-4.64A12.57,12.57,0,0,1,125,17.26a13.36,13.36,0,0,1,4.25-2.53,14.79,14.79,0,0,1,5.18-.93,15.14,15.14,0,0,1,5.22.93,14.19,14.19,0,0,1,4.25,2.53A12.43,12.43,0,0,1,146.77,21a11,11,0,0,1,1,4.64,10.73,10.73,0,0,1-1,4.61,11.7,11.7,0,0,1-2.84,3.78,14.29,14.29,0,0,1-4.25,2.56,15.15,15.15,0,0,1-5.22.93A14.8,14.8,0,0,1,129.27,36.62ZM128,19.92a7.49,7.49,0,0,0,0,11.52,9.95,9.95,0,0,0,13,0,7.49,7.49,0,0,0,0-11.52A9.95,9.95,0,0,0,128,19.92Z" transform="translate(-6.76 -13.51)"/>
    <path class="cls-1" d="M172.4,37.55h-4.72l-6.73-8h-3.06v8h-4.18V13.81h7.92a9,9,0,0,1,6.66,2.37,7.53,7.53,0,0,1,2.16,5.5,7.5,7.5,0,0,1-2.16,5.47A7.58,7.58,0,0,1,165.2,29ZM161.63,26.19a5.26,5.26,0,0,0,3.85-1.28,4.38,4.38,0,0,0,1.19-3.23,4.4,4.4,0,0,0-1.19-3.26,5.25,5.25,0,0,0-3.85-1.25h-3.74v9h3.74Z" transform="translate(-6.76 -13.51)"/>
    <path class="cls-1" d="M181,23.47h9.75v3.36H181v7.36h11.84v3.36h-16V13.81h16v3.33H181v6.34Z" transform="translate(-6.76 -13.51)"/>
    <path class="cls-1" d="M75,41.55v-1.6H94.47v1.6H75Z" transform="translate(-6.76 -13.51)"/>
  </g>
</svg>
